<?xml version="1.0" encoding="UTF-8"?>
<svg id="Layer_2" xmlns="http://www.w3.org/2000/svg" version="1.1" viewBox="0 0 153 102.5">
  <!-- Generator: Adobe Illustrator 30.0.0, SVG Export Plug-In . SVG Version: 2.1.1 Build 123)  -->
  <defs>
    <style>
      .st0, .st1, .st2 {
        isolation: isolate;
      }

      .st3, .st1, .st2, .st4 {
        fill: #32cd99;
      }

      .st5 {
        fill: none;
        stroke: #32cd99;
        stroke-miterlimit: 10;
        stroke-width: 3px;
      }

      .st1 {
        font-size: 18px;
      }

      .st1, .st2 {
        font-family: Unbounded-Regular, Unbounded;
      }

      .st2 {
        font-size: 21px;
      }

      .st4 {
        fill-rule: evenodd;
      }
    </style>
  </defs>
  <g id="Layer_1-2">
    <path class="st3" d="M95.8,8.7c18.1,0,32.8,14.7,32.8,32.8s-14.7,32.8-32.8,32.8-32.8-14.7-32.8-32.8,14.7-32.8,32.8-32.8M95.8,5.7c-19.8,0-35.8,16-35.8,35.8s16,35.8,35.8,35.8,35.8-16,35.8-35.8S115.6,5.7,95.8,5.7h0Z"/>
    <line class="st5" x1="40" y1="75.3" x2="142.1" y2="12.5"/>
    <g>
      <polygon class="st5" points="142.1 3 133.9 17.3 150.4 17.3 142.1 3"/>
      <polygon class="st4" points="142.1 3 133.9 17.3 150.4 17.3 142.1 3"/>
    </g>
    <g class="st0">
      <g class="st0">
        <text class="st1" transform="translate(16.8 20.8)"><tspan x="0" y="0">G</tspan></text>
      </g>
      <g class="st0">
        <text class="st1" transform="translate(17.6 40.8)"><tspan x="0" y="0">A</tspan></text>
      </g>
      <g class="st0">
        <text class="st1" transform="translate(17.9 60.8)"><tspan x="0" y="0">B</tspan></text>
      </g>
      <g class="st0">
        <text class="st2" transform="translate(21 80.8)"><tspan x="0" y="0">I</tspan></text>
      </g>
    </g>
  </g>
</svg>